<?xml version="1.0" encoding="UTF-8" standalone="no"?>
<!-- Generator: Adobe Illustrator 24.1.0, SVG Export Plug-In . SVG Version: 6.00 Build 0)  -->

<svg
   version="1.1"
   id="Layer_1"
   x="0px"
   y="0px"
   viewBox="0 0 66.7 66.1"
   xml:space="preserve"
   sodipodi:docname="geu-logo2.svg"
   width="66.700012"
   height="66.099998"
   inkscape:version="1.1.1 (1:1.1+202109281949+c3084ef5ed)"
   xmlns:inkscape="http://www.inkscape.org/namespaces/inkscape"
   xmlns:sodipodi="http://sodipodi.sourceforge.net/DTD/sodipodi-0.dtd"
   xmlns="http://www.w3.org/2000/svg"
   xmlns:svg="http://www.w3.org/2000/svg"><defs
   id="defs63" /><sodipodi:namedview
   id="namedview61"
   pagecolor="#ffffff"
   bordercolor="#666666"
   borderopacity="1.0"
   inkscape:pageshadow="2"
   inkscape:pageopacity="0.0"
   inkscape:pagecheckerboard="0"
   showgrid="false"
   width="258.70001px"
   inkscape:zoom="6.4630843"
   inkscape:cx="32.879039"
   inkscape:cy="43.632418"
   inkscape:window-width="1920"
   inkscape:window-height="1016"
   inkscape:window-x="0"
   inkscape:window-y="64"
   inkscape:window-maximized="1"
   inkscape:current-layer="Layer_1" />
<style
   type="text/css"
   id="style2">
	.st0{fill:#CC3634;}
	.st1{fill:#353434;}
	.st2{fill-rule:evenodd;clip-rule:evenodd;fill:#353434;}
	.st3{fill-rule:evenodd;clip-rule:evenodd;fill:#FFFFFF;}
	.st4{fill:none;stroke:#221F1F;stroke-width:0.1935;stroke-miterlimit:2.6131;}
	.st5{fill-rule:evenodd;clip-rule:evenodd;fill:#221F1F;}
	.st6{fill:none;stroke:#221F1F;stroke-width:0.129;stroke-miterlimit:2.6131;}
	.st7{fill-rule:evenodd;clip-rule:evenodd;fill:#BA2026;}
	.st8{fill-rule:evenodd;clip-rule:evenodd;fill:#F38020;}
	.st9{fill:#221F1F;}
	.st10{fill:#FFFFFF;}
</style>

<path
   class="st3"
   d="m 3.7046347,38.476693 1.9,-0.6 c -0.1,-0.7 -0.2,-1.4 -0.3,-2.2 h -2 c -0.1,-0.9 -0.1,-1.7 -0.1,-2.6 0,-0.9 0,-1.7 0.1,-2.6 h 2 c 0.1,-0.7 0.2,-1.5 0.3,-2.2 l -1.9,-0.5 c 0.3,-1.7 0.8,-3.4 1.3,-5 l 1.9,0.5 c 0.3,-0.7 0.5,-1.4 0.8,-2 l -1.7,-1 c 0.8,-1.5 1.7,-3 2.6000003,-4.4 l 1.7,1 c 0.4,-0.6 0.9,-1.2 1.3,-1.7 l -1.4,-1.4 c 1.1,-1.3 2.3,-2.5 3.7,-3.7 l 1.4,1.4 c 0.6,-0.5 1.1,-0.9 1.7,-1.3 l -1,-1.6999999 c 1.4,-1 2.9,-1.9 4.5,-2.6 l 1,1.7 c 0.7,-0.3 1.3,-0.6 2,-0.8 l -0.5,-1.9 c 1.6,-0.6 3.3,-0.9999999 5,-1.2999999 l 0.5,1.8999999 c 0.7,-0.1 1.4,-0.2 2.2,-0.3 V 3.1766932 c 0.9,-0.1 1.7,-0.1 2.6,-0.1 0.9,0 1.7,0 2.6,0.1 v 1.9999999 c 0.7,0.1 1.5,0.2 2.2,0.3 l 0.5,-1.8999999 c 1.7,0.3 3.4,0.7999999 5,1.2999999 l -0.5,1.9 c 0.7,0.3 1.4,0.5 2,0.8 l 1,-1.7 c 1.6,0.7 3.1,1.6 4.5,2.6 l -1,1.6999999 c 0.6,0.4 1.2,0.9 1.7,1.3 l 1.4,-1.4 c 1.3,1.1 2.5,2.3 3.7,3.7 l -1.4,1.4 c 0.5,0.6 0.9,1.1 1.3,1.7 l 1.7,-1 c 1,1.4 1.9,2.9 2.6,4.5 l -1.7,1 c 0.3,0.7 0.6,1.3 0.8,2 l 1.9,-0.5 c 0.6,1.6 1,3.3 1.3,5 l -1.9,0.5 c 0.1,0.7 0.2,1.4 0.3,2.2 h 2 c 0.1,0.9 0.1,1.7 0.1,2.6 0,0.9 0,1.7 -0.1,2.6 h -2 c -0.1,0.7 -0.2,1.5 -0.3,2.2 l 1.9,0.5 c -0.3,1.7 -0.8,3.4 -1.3,5 l -1.9,-0.5 c -0.3,0.7 -0.5,1.4 -0.8,2 l 1.7,1 c -0.7,1.6 -1.6,3.1 -2.6,4.5 l -1.7,-1 c -0.4,0.6 -0.9,1.2 -1.3,1.7 l 1.4,1.4 c -1.1,1.3 -2.3,2.5 -3.7,3.7 l -1.4,-1.4 c -0.6,0.5 -1.1,0.9 -1.7,1.3 l 1,1.7 c -1.4,1 -2.9,1.9 -4.5,2.6 l -1,-1.7 c -0.7,0.3 -1.3,0.6 -2,0.8 l 0.5,1.9 c -1.6,0.6 -3.3,1 -5,1.3 l -0.5,-1.9 c -0.7,0.1 -1.4,0.2 -2.2,0.3 v 2 c -0.8,0.1 -1.7,0.1 -2.5,0.1 -0.9,0 -1.7,0 -2.6,-0.1 v -2 c -0.7,-0.1 -1.5,-0.2 -2.2,-0.3 l -0.5,1.9 c -1.7,-0.3 -3.4,-0.8 -5,-1.3 l 0.5,-1.9 c -0.7,-0.3 -1.4,-0.5 -2,-0.8 l -1,1.7 c -1.6,-0.7 -3.1,-1.6 -4.5,-2.6 l 1,-1.7 c -0.6,-0.4 -1.2,-0.9 -1.7,-1.3 l -1.4,1.4 c -1.3,-1.1 -2.5,-2.3 -3.7,-3.7 l 1.4,-1.4 c -0.5,-0.6 -0.9,-1.1 -1.3,-1.7 l -1.7,1 c -1.0000003,-1.4 -1.9000003,-2.9 -2.6000003,-4.5 l 1.7,-1 c -0.3,-0.7 -0.6,-1.3 -0.8,-2 l -1.9,0.5 c -0.7,-1.7 -1.1,-3.3 -1.4,-5 z"
   id="path28" />
<path
   class="st4"
   d="m 3.7046347,38.476693 1.9,-0.6 c -0.1,-0.7 -0.2,-1.4 -0.3,-2.2 h -2 c -0.1,-0.9 -0.1,-1.7 -0.1,-2.6 0,-0.9 0,-1.7 0.1,-2.6 h 2 c 0.1,-0.7 0.2,-1.5 0.3,-2.2 l -1.9,-0.5 c 0.3,-1.7 0.8,-3.4 1.3,-5 l 1.9,0.5 c 0.3,-0.7 0.5,-1.4 0.8,-2 l -1.7,-1 c 0.8,-1.5 1.7,-3 2.6000003,-4.4 l 1.7,1 c 0.4,-0.6 0.9,-1.2 1.3,-1.7 l -1.4,-1.4 c 1.1,-1.3 2.3,-2.5 3.7,-3.7 l 1.4,1.4 c 0.6,-0.5 1.1,-0.9 1.7,-1.3 l -1,-1.6999999 c 1.4,-1 2.9,-1.9 4.5,-2.6 l 1,1.7 c 0.7,-0.3 1.3,-0.6 2,-0.8 l -0.5,-1.9 c 1.6,-0.6 3.3,-0.9999999 5,-1.2999999 l 0.5,1.8999999 c 0.7,-0.1 1.4,-0.2 2.2,-0.3 V 3.1766932 c 0.9,-0.1 1.7,-0.1 2.6,-0.1 0.9,0 1.7,0 2.6,0.1 v 1.9999999 c 0.7,0.1 1.5,0.2 2.2,0.3 l 0.5,-1.8999999 c 1.7,0.3 3.4,0.7999999 5,1.2999999 l -0.5,1.9 c 0.7,0.3 1.4,0.5 2,0.8 l 1,-1.7 c 1.6,0.7 3.1,1.6 4.5,2.6 l -1,1.6999999 c 0.6,0.4 1.2,0.9 1.7,1.3 l 1.4,-1.4 c 1.3,1.1 2.5,2.3 3.7,3.7 l -1.4,1.4 c 0.5,0.6 0.9,1.1 1.3,1.7 l 1.7,-1 c 1,1.4 1.9,2.9 2.6,4.5 l -1.7,1 c 0.3,0.7 0.6,1.3 0.8,2 l 1.9,-0.5 c 0.6,1.6 1,3.3 1.3,5 l -1.9,0.5 c 0.1,0.7 0.2,1.4 0.3,2.2 h 2 c 0.1,0.9 0.1,1.7 0.1,2.6 0,0.9 0,1.7 -0.1,2.6 h -2 c -0.1,0.7 -0.2,1.5 -0.3,2.2 l 1.9,0.5 c -0.3,1.7 -0.8,3.4 -1.3,5 l -1.9,-0.5 c -0.3,0.7 -0.5,1.4 -0.8,2 l 1.7,1 c -0.7,1.6 -1.6,3.1 -2.6,4.5 l -1.7,-1 c -0.4,0.6 -0.9,1.2 -1.3,1.7 l 1.4,1.4 c -1.1,1.3 -2.3,2.5 -3.7,3.7 l -1.4,-1.4 c -0.6,0.5 -1.1,0.9 -1.7,1.3 l 1,1.7 c -1.4,1 -2.9,1.9 -4.5,2.6 l -1,-1.7 c -0.7,0.3 -1.3,0.6 -2,0.8 l 0.5,1.9 c -1.6,0.6 -3.3,1 -5,1.3 l -0.5,-1.9 c -0.7,0.1 -1.4,0.2 -2.2,0.3 v 2 c -0.8,0.1 -1.7,0.1 -2.5,0.1 -0.9,0 -1.7,0 -2.6,-0.1 v -2 c -0.7,-0.1 -1.5,-0.2 -2.2,-0.3 l -0.5,1.9 c -1.7,-0.3 -3.4,-0.8 -5,-1.3 l 0.5,-1.9 c -0.7,-0.3 -1.4,-0.5 -2,-0.8 l -1,1.7 c -1.6,-0.7 -3.1,-1.6 -4.5,-2.6 l 1,-1.7 c -0.6,-0.4 -1.2,-0.9 -1.7,-1.3 l -1.4,1.4 c -1.3,-1.1 -2.5,-2.3 -3.7,-3.7 l 1.4,-1.4 c -0.5,-0.6 -0.9,-1.1 -1.3,-1.7 l -1.7,1 c -1.0000003,-1.4 -1.9000003,-2.9 -2.6000003,-4.5 l 1.7,-1 c -0.3,-0.7 -0.6,-1.3 -0.8,-2 l -1.9,0.5 c -0.7,-1.7 -1.1,-3.3 -1.4,-5 z"
   id="path30" />
<path
   class="st5"
   d="m 3.7046347,38.476693 1.9,-0.6 c -0.1,-0.7 -0.2,-1.4 -0.3,-2.2 h -2 c -0.1,-0.9 -0.1,-1.7 -0.1,-2.6 0,-0.6 0,-1.3 0.1,-1.9 l 0.3,-0.2 2.6,0.2 H 60.204635 l 3,-0.3 0.3,0.4 c 0,0.6 0.1,1.3 0.1,1.9 0,0.9 0,1.7 -0.1,2.6 h -2 c -0.1,0.7 -0.2,1.5 -0.3,2.2 l 1.9,0.5 c -0.3,1.7 -0.8,3.4 -1.3,5 l -1.9,-0.5 c -0.3,0.7 -0.5,1.4 -0.8,2 l 1.7,1 c -0.7,1.6 -1.6,3.1 -2.6,4.5 l -1.7,-1 c -0.4,0.6 -0.9,1.2 -1.3,1.7 l 1.4,1.4 c -1.1,1.3 -2.3,2.5 -3.7,3.7 l -1.4,-1.4 c -0.6,0.5 -1.1,0.9 -1.7,1.3 l 1,1.7 c -1.4,1 -2.9,1.9 -4.5,2.6 l -1,-1.7 c -0.7,0.3 -1.3,0.6 -2,0.8 l 0.5,1.9 c -1.6,0.6 -3.3,1 -5,1.3 l -0.5,-1.9 c -0.7,0.1 -1.4,0.2 -2.2,0.3 v 2 c -1,0.1 -1.9,0.1 -2.7,0.1 -0.9,0 -1.7,0 -2.6,-0.1 v -2 c -0.7,-0.1 -1.5,-0.2 -2.2,-0.3 l -0.5,1.9 c -1.7,-0.3 -3.4,-0.8 -5,-1.3 l 0.5,-1.9 c -0.7,-0.3 -1.4,-0.5 -2,-0.8 l -1,1.7 c -1.6,-0.7 -3.1,-1.6 -4.5,-2.6 l 1,-1.7 c -0.6,-0.4 -1.2,-0.9 -1.7,-1.3 l -1.4,1.4 c -1.3,-1.1 -2.5,-2.3 -3.7,-3.7 l 1.4,-1.4 c -0.5,-0.6 -0.9,-1.1 -1.3,-1.7 l -1.7,1 c -1.0000003,-1.4 -1.9000003,-2.9 -2.6000003,-4.5 l 1.7,-1 c -0.3,-0.7 -0.6,-1.3 -0.8,-2 l -1.9,0.5 c -0.7,-1.7 -1.1,-3.3 -1.4,-5 z"
   id="path32" />
<path
   class="st6"
   d="m 3.7046347,38.476693 1.9,-0.6 c -0.1,-0.7 -0.2,-1.4 -0.3,-2.2 h -2 c -0.1,-0.9 -0.1,-1.7 -0.1,-2.6 0,-0.6 0,-1.3 0.1,-1.9 l 0.3,-0.2 2.6,0.2 H 60.204635 l 3,-0.3 0.3,0.4 c 0,0.6 0.1,1.3 0.1,1.9 0,0.9 0,1.7 -0.1,2.6 h -2 c -0.1,0.7 -0.2,1.5 -0.3,2.2 l 1.9,0.5 c -0.3,1.7 -0.8,3.4 -1.3,5 l -1.9,-0.5 c -0.3,0.7 -0.5,1.4 -0.8,2 l 1.7,1 c -0.7,1.6 -1.6,3.1 -2.6,4.5 l -1.7,-1 c -0.4,0.6 -0.9,1.2 -1.3,1.7 l 1.4,1.4 c -1.1,1.3 -2.3,2.5 -3.7,3.7 l -1.4,-1.4 c -0.6,0.5 -1.1,0.9 -1.7,1.3 l 1,1.7 c -1.4,1 -2.9,1.9 -4.5,2.6 l -1,-1.7 c -0.7,0.3 -1.3,0.6 -2,0.8 l 0.5,1.9 c -1.6,0.6 -3.3,1 -5,1.3 l -0.5,-1.9 c -0.7,0.1 -1.4,0.2 -2.2,0.3 v 2 c -1,0.1 -1.9,0.1 -2.7,0.1 -0.9,0 -1.7,0 -2.6,-0.1 v -2 c -0.7,-0.1 -1.5,-0.2 -2.2,-0.3 l -0.5,1.9 c -1.7,-0.3 -3.4,-0.8 -5,-1.3 l 0.5,-1.9 c -0.7,-0.3 -1.4,-0.5 -2,-0.8 l -1,1.7 c -1.6,-0.7 -3.1,-1.6 -4.5,-2.6 l 1,-1.7 c -0.6,-0.4 -1.2,-0.9 -1.7,-1.3 l -1.4,1.4 c -1.3,-1.1 -2.5,-2.3 -3.7,-3.7 l 1.4,-1.4 c -0.5,-0.6 -0.9,-1.1 -1.3,-1.7 l -1.7,1 c -1.0000003,-1.4 -1.9000003,-2.9 -2.6000003,-4.5 l 1.7,-1 c -0.3,-0.7 -0.6,-1.3 -0.8,-2 l -1.9,0.5 c -0.7,-1.7 -1.1,-3.3 -1.4,-5 z"
   id="path34" />
<path
   class="st3"
   d="m 33.404635,5.6766931 c 14.5,0 26.4,11.2999999 27.4,25.5999999 h -7.5 c -1,-10.2 -9.5,-18.1 -19.9,-18.1 -10.4,0 -19,7.9 -19.9,18.1 H 5.9046347 c 1,-14.3 12.9000003,-25.5999999 27.5000003,-25.5999999"
   id="path36" />
<path
   class="st3"
   d="m 33.404635,12.976693 c 11.1,0 20.2,9 20.2,20.2 0,11.2 -9,20.2 -20.2,20.2 -11.1,0 -20.2,-9 -20.2,-20.2 0,-11.2 9,-20.2 20.2,-20.2 z"
   id="path38" />
<path
   class="st4"
   d="m 33.404635,12.976693 c 11.1,0 20.2,9 20.2,20.2 0,11.2 -9,20.2 -20.2,20.2 -11.1,0 -20.2,-9 -20.2,-20.2 0,-11.2 9,-20.2 20.2,-20.2 z"
   id="path40" />
<path
   class="st7"
   d="m 34.004635,13.976693 c -0.9,6.8 -18.4,10.3 -16.1,23.8 0.3,1.3 0.6,2 1.5,3.1 3.5,4.5 7.3,5.9 14,7.3 18.2,-3.2 18.4,-16.4 11.4,-17.7 -4.6,-0.5 -8.6,0.3 -11.7,3.1 6.6,-4.6 14.4,-1.6 11.4,5.3 -1.2,2.5 -6.5,6.1 -11.1,7 -10.7,-2.4 -16.5,-10.1 -8.2,-19.2 6.6,-6.1 8.9,-9.2 8.8,-12.7"
   id="path42" />
<path
   class="st8"
   d="m 33.604635,18.776693 c -3.4,7.2 -14.9,10.8 -10.7,19.8 2.6,3.6 6.3,5.6 10.5,6.6 16.1,-4.9 12,-16.2 3.4,-12.9 7.1,-0.9 7.3,7.6 -3.4,11 -6.7,-1.5 -10.1,-5.5 -8,-10.9 2.1,-5.5 6.7,-6.7 8.2,-13.6"
   id="path44" />
<path
   class="st8"
   d="m 25.204635,35.176693 c 2.8,-4.8 11.1,-4 8.7,-16.4 0.2,10.1 -8.5,11.2 -8.7,16.4"
   id="path46" />
<rect
   x="29.804636"
   y="48.87669"
   class="st7"
   width="7"
   height="1.4"
   id="rect48" />
<rect
   x="30.804636"
   y="50.87669"
   class="st7"
   width="4.9000001"
   height="1.4"
   id="rect50" />
<path
   class="st8"
   d="m 34.404635,16.976693 c 2.8,5.1 3.4,10 -2.5,14.4 3.7,-4.6 4.2,-9.4 2.5,-14.4"
   id="path52" />
<path
   class="st9"
   d="m 57.004635,28.276693 -0.9,0.2 -0.1,-0.5 0.9,-0.2 1.5,-1.2 0.1,0.6 -1,0.7 1.2,0.2 0.1,0.6 z m 1.3,-1.6 -0.5,0.1 v -0.5 l -2.2,0.6 -0.1,-0.5 2.1,-0.6 -0.1,-0.5 0.5,-0.1 z m -3.2,-1.5 2.5,-0.9 0.2,0.5 -2.5,0.9 z m -0.1,-0.3 -0.5,-1.3 2.5,-1 0.2,0.5 -2.1,0.8 0.3,0.8 z m -0.9,-3.2 -0.6,0.1 -0.2,-0.5 2.9,-0.3 0.2,0.4 -1.9,2.2 -0.3,-0.5 0.4,-0.5 z m 0.8,0.5 0.6,-0.7 -0.9,0.1 z m -1.7,-1 -0.8,-1.2 2.3,-1.5 0.8,1.2 -0.4,0.3 -0.5,-0.8 -0.5,0.3 0.5,0.8 -0.4,0.3 -0.5,-0.8 -0.6,0.4 0.5,0.8 z m -1.8,-2.5 -0.3,-0.4 2.1,-1.7 0.4,0.5 c 0.1,0.2 0.2,0.3 0.3,0.4 0.1,0.1 0.1,0.2 0.1,0.2 0,0.2 0,0.3 0,0.5 0,0.1 -0.1,0.3 -0.3,0.4 -0.2,0.1 -0.3,0.2 -0.5,0.2 -0.2,0 -0.4,-0.1 -0.5,-0.2 l -0.4,1.2 -0.4,-0.5 0.5,-1.3 z m 1.1,-0.8 v 0 c 0.2,0.3 0.3,0.4 0.5,0.4 0.1,0 0.3,0 0.4,-0.1 0.1,-0.1 0.2,-0.2 0.2,-0.3 0,-0.1 -0.1,-0.2 -0.2,-0.4 l -0.2,-0.2 z m -3.4,-3.6 c 0.1,-0.1 0.2,-0.2 0.3,-0.3 0.1,-0.1 0.2,-0.1 0.4,-0.1 0.2,-0.1 0.5,0 0.7,0 0.2,0.1 0.4,0.2 0.6,0.3 0.1,0.1 0.2,0.3 0.3,0.4 0.1,0.2 0.1,0.3 0.1,0.5 0,0.2 0,0.4 -0.1,0.5 -0.1,0.2 -0.2,0.3 -0.3,0.5 -0.1,0.1 -0.3,0.2 -0.4,0.3 -0.2,0.1 -0.3,0.1 -0.5,0.1 -0.2,0 -0.4,0 -0.5,-0.1 -0.2,-0.1 -0.3,-0.2 -0.5,-0.3 -0.1,-0.1 -0.3,-0.3 -0.3,-0.5 -0.1,-0.2 -0.1,-0.3 -0.1,-0.5 0,-0.2 0,-0.4 0.1,-0.5 0,0 0.1,-0.1 0.2,-0.3 z m 0.4,0.4 c -0.1,0.1 -0.1,0.2 -0.2,0.3 0,0.1 -0.1,0.2 -0.1,0.3 0,0.1 0,0.2 0.1,0.3 0,0.1 0.1,0.2 0.2,0.3 0.2,0.2 0.4,0.2 0.6,0.2 0.2,0 0.4,-0.1 0.6,-0.3 0.2,-0.2 0.2,-0.4 0.2,-0.6 0,-0.2 -0.1,-0.4 -0.3,-0.6 -0.2,-0.2 -0.4,-0.2 -0.6,-0.2 -0.1,0 -0.3,0.1 -0.5,0.3 z m 0.2,-1.6 -0.3,0.4 -0.4,-0.3 -1.4,1.8 -0.4,-0.3 1.4,-1.7 -0.4,-0.3 0.3,-0.4 z m -4.4,0.2 -0.4,-0.3 1.4,-2.3 0.4,0.3 v 2 l 0.9,-1.5 0.4,0.3 -1.4,2.4 -0.4,-0.3 v -2.1 z m -1.3,-0.7 1.2,-2.4 0.5,0.2 -1.2,2.4 z m -2.5,-2 0.4,0.2 v 0 c 0,0.1 0,0.2 0,0.3 0,0.1 0.1,0.1 0.2,0.2 0.1,0 0.2,0 0.3,0 0.1,0 0.1,-0.1 0.2,-0.2 0.1,-0.2 0,-0.3 -0.2,-0.5 0,0 0,0 -0.1,0 -0.2,-0.1 -0.3,-0.3 -0.3,-0.4 -0.1,-0.1 0,-0.2999999 0,-0.4999999 0.1,-0.2 0.2,-0.4 0.4,-0.5 0.2,-0.1 0.4,-0.1 0.6,0 0.2,0.1 0.3,0.2 0.4,0.4 0.1,0.2 0.1,0.4 0,0.5999999 l -0.4,-0.1999999 v 0 c 0,-0.1 0,-0.2 0,-0.2 0,-0.1 -0.1,-0.1 -0.2,-0.1 -0.1,0 -0.2,0 -0.2,0 -0.1,0 -0.1,0.1 -0.1,0.2 0,0 0,0.1 0,0.1 0,0 0,0.1 0,0.1 0,0.1 0.1,0.2 0.2,0.3 0.1,0 0.1,0.1 0.1,0.1 0.1,0.1 0.2,0.3 0.3,0.4 0,0.1 0,0.3 0,0.5 -0.1,0.3 -0.3,0.4 -0.5,0.5 -0.2,0.1 -0.4,0.1 -0.7,0 -0.2,-0.1 -0.4,-0.2 -0.5,-0.4 0,-0.4 0,-0.7 0.1,-0.9 z m -2.8,0 -0.5,-0.1 0.7,-2.5999999 0.7,0.2 0.2,2.0999999 1.2,-1.6999999 0.7,0.2 -0.7,2.5999999 -0.5,-0.1 0.5,-1.8999999 -1.2,1.6999999 -0.4,-0.1 -0.2,-2.0999999 z m -2.3,-0.8999999 -0.3,0.4999999 -0.5,-0.1 1.4,-2.4999999 0.5,0.1 0.7,2.7999999 -0.6,-0.1 -0.1,-0.5999999 z m 0.9,-0.4 -0.2,-0.9 -0.4,0.8 z m -1.7,0.7999999 -1.4,-0.1 0.2,-2.7 1.4,0.1 v 0.5 l -0.9,-0.1 v 0.6 l 0.9,0.1 v 0.5 l -0.9,-0.1 v 0.7 l 0.9,0.1 z m -3.1,0 h -0.5 V 7.3766931 h 0.6 c 0.2,0 0.4,0 0.5,0 0.1,0 0.2,0 0.3,0.1 0.2,0.1 0.3,0.2 0.4,0.3 0.1,0.1 0.1,0.3 0.1,0.4 0,0.2 -0.1,0.4 -0.2,0.5 -0.1,0.1 -0.3,0.2 -0.5,0.3 l 0.7,1 h -0.6 l -0.7,-1.2 z m 0,-1.3999999 h 0.1 c 0.2,0 0.4,0 0.5,-0.1 0.1,-0.1 0.2,-0.2 0.2,-0.3 0,-0.1 -0.1,-0.2 -0.1,-0.3 -0.1,-0.1 -0.2,-0.1 -0.4,-0.1 h -0.2 z m -2.2,1.4999999 -0.9,0.1 -0.3,-2.6999999 0.9,-0.1 c 0.2,0 0.4,0 0.6,0 0.2,0 0.3,0.1 0.4,0.2 0.1,0.1 0.3,0.2 0.3,0.4 0.1,0.2 0.1,0.4 0.2,0.6 0,0.2 0,0.5 -0.1,0.7 -0.1,0.2 -0.2,0.4 -0.3,0.5 -0.1,0.1 -0.2,0.1 -0.3,0.1999999 -0.2,0.1 -0.3,0.1 -0.5,0.1 z m -0.1,-0.3999999 c 0.3,0 0.5,-0.1 0.6,-0.3 0.1,-0.2 0.2,-0.4 0.1,-0.7 0,-0.3 -0.1,-0.5 -0.3,-0.6 -0.2,-0.1 -0.4,-0.2 -0.7,-0.2 h -0.3 l 0.2,1.8 z m -2.6,-0.5 c 0,0 0,0 0,0 0,0 0,0 0,0 0.1,0.2 0.1,0.3 0.1,0.4 0,0.1 0,0.2 0,0.3 -0.1,0.2999999 -0.2,0.4999999 -0.3,0.6999999 -0.2,0.2 -0.4,0.3 -0.7,0.4 -0.2,0.1 -0.4,0.1 -0.6,0 -0.2,0 -0.4,-0.1 -0.5,-0.2 -0.1,-0.1 -0.3,-0.2 -0.4,-0.4 -0.1,-0.1 -0.2,-0.3 -0.2,-0.4999999 0,-0.2 -0.1,-0.4 0,-0.5 0,-0.2 0.1,-0.4 0.2,-0.5 0.1,-0.2 0.2,-0.3 0.4,-0.4 0.1,-0.1 0.3,-0.2 0.5,-0.2 0.3,-0.1 0.5,-0.1 0.8,0 0.2,0.1 0.4,0.2 0.6,0.5 l -0.6,0.2 c -0.1,-0.1 -0.2,-0.1 -0.3,-0.1 -0.1,0 -0.2,0 -0.4,0 -0.2,0.1 -0.4,0.2 -0.5,0.4 -0.1,0.2 -0.1,0.4 -0.1,0.6 0.1,0.1999999 0.2,0.3999999 0.4,0.4999999 0.2,0.1 0.4,0.1 0.6,0.1 0.2,0 0.3,-0.1 0.4,-0.2 0.1,-0.1 0.2,-0.3 0.2,-0.3999999 l -1,0.2999999 -0.1,-0.3999999 z m -4,2.8999999 -0.5,0.2 -1.1,-2.4999999 0.5,-0.2 1.7,1.0999999 -0.7,-1.4999999 0.5,-0.2 1.1,2.4999999 -0.5,0.2 -1.7,-1.2 z m -1.4,0.7 -1.2,-2.4 0.5,-0.2 1.2,2.4 z m -2.3,1.4 -0.4,0.3 -1.4,-2.3 0.6,-0.4 1.6,1.3 -0.5,-2 0.6,-0.4 1.4,2.3 -0.4,0.3 -1,-1.7 0.5,2 -0.3,0.2 -1.6,-1.3 z m -1.6,1.3 -0.4,0.3 -1.7,-2.1 0.5,-0.4 c 0.2,-0.1 0.3,-0.2 0.4,-0.3 0.1,-0.1 0.2,-0.1 0.2,-0.1 0.2,0 0.3,0 0.5,0 0.1,0 0.3,0.1 0.4,0.3 0.1,0.2 0.2,0.3 0.2,0.5 0,0.2 -0.1,0.4 -0.2,0.5 l 1.2,0.4 -0.5,0.4 -1.3,-0.5 z m -0.9,-1 v 0 c 0.3,-0.2 0.4,-0.3 0.4,-0.5 0,-0.1 0,-0.3 -0.1,-0.4 -0.1,-0.1 -0.2,-0.2 -0.3,-0.2 -0.1,0 -0.2,0.1 -0.4,0.2 l -0.1,0.1 z m -2.7,2.7 c -0.1,-0.1 -0.2,-0.2 -0.3,-0.3 -0.1,-0.1 -0.1,-0.2 -0.1,-0.4 0,-0.2 0,-0.5 0,-0.7 0.1,-0.2 0.2,-0.4 0.3,-0.6 0.1,-0.1 0.3,-0.2 0.4,-0.3 0.2,-0.1 0.3,-0.1 0.5,-0.1 0.2,0 0.4,0 0.5,0.1 0.2,0.1 0.3,0.2 0.5,0.3 0.1,0.1 0.2,0.3 0.3,0.4 0.1,0.2 0.1,0.3 0.1,0.5 0,0.2 0,0.4 -0.1,0.5 -0.1,0.2 -0.2,0.3 -0.3,0.5 -0.1,0.1 -0.3,0.3 -0.5,0.3 -0.2,0.1 -0.3,0.1 -0.5,0.1 -0.2,0 -0.4,0 -0.5,-0.1 0,0 -0.1,-0.1 -0.3,-0.2 z m 0.4,-0.5 c 0.1,0.1 0.2,0.1 0.3,0.2 0.1,0 0.2,0.1 0.3,0.1 0.1,0 0.2,0 0.3,-0.1 0.1,0 0.2,-0.1 0.3,-0.2 0.2,-0.2 0.2,-0.4 0.2,-0.6 0,-0.2 -0.1,-0.4 -0.3,-0.6 -0.2,-0.2 -0.4,-0.2 -0.6,-0.2 -0.2,0 -0.4,0.1 -0.6,0.2 -0.2,0.2 -0.2,0.4 -0.2,0.6 0,0.3 0.1,0.5 0.3,0.6 z m -0.4,2.7 -2.1,-1.7 0.9,-1.1 0.4,0.3 -0.6,0.7 0.5,0.4 0.6,-0.7 0.4,0.3 -0.6,0.7 0.9,0.7 z m -1.8,1.2 0.2,-0.4 v 0 c 0.1,0.1 0.2,0.1 0.3,0.1 0.1,0 0.2,-0.1 0.2,-0.1 0.1,-0.1 0.1,-0.2 0.1,-0.3 0,-0.1 -0.1,-0.2 -0.2,-0.2 -0.1,-0.1 -0.3,-0.1 -0.5,0.1 0,0 0,0 -0.1,0.1 -0.2,0.1 -0.3,0.2 -0.5,0.2 -0.2,0 -0.3,0 -0.5,-0.1 -0.2,-0.1 -0.3,-0.3 -0.4,-0.5 -0.1,-0.2 0,-0.4 0.1,-0.6 0.1,-0.2 0.3,-0.3 0.5,-0.3 0.2,0 0.4,0 0.6,0.1 l -0.3,0.4 v 0 c -0.1,0 -0.1,-0.1 -0.2,0 -0.1,0 -0.1,0.1 -0.2,0.1 0,0.1 -0.1,0.1 0,0.2 0,0.1 0.1,0.1 0.1,0.2 0,0 0.1,0 0.1,0 0,0 0.1,0 0.1,0 0.1,0 0.2,-0.1 0.3,-0.2 0.1,-0.1 0.1,-0.1 0.1,-0.1 0.2,-0.1 0.3,-0.2 0.4,-0.2 0.1,0 0.3,0 0.4,0.1 0.2,0.2 0.4,0.3 0.4,0.6 0.1,0.2 0,0.4 -0.1,0.7 -0.1,0.2 -0.3,0.3 -0.5,0.4 0,-0.1 -0.2,-0.1 -0.4,-0.3 z m -0.3,2.1 -0.2,0.5 -2.4,-1.3 0.2,-0.4 2,-0.2 -1.5,-0.8 0.2,-0.5 2.4,1.3 -0.2,0.4 -2.1,0.2 z m -1.4,2 0.4,0.4 -0.2,0.5 -2.1,-2 0.2,-0.4 2.9,0.1 -0.2,0.5 h -0.6 z m -0.2,-0.9 h -0.9 l 0.7,0.6 z m 0.1,3.1 -0.1,0.5 -2.6,-0.7 0.2,-0.6 c 0,-0.3 0,-0.4 0,-0.5 0,-0.1 0.1,-0.2 0.1,-0.2 0.1,-0.1 0.2,-0.2 0.4,-0.3 0.1,0 0.3,0 0.5,0 0.2,0.1 0.4,0.2 0.5,0.3 0.1,0.1 0.2,0.3 0.1,0.5 l 1.2,-0.4 -0.2,0.7 -1.4,0.3 z m -1.4,-0.4 v -0.1 c 0.1,-0.2 0.1,-0.4 0,-0.5 0,-0.1 -0.1,-0.2 -0.3,-0.3 -0.1,0 -0.3,0 -0.3,0 -0.1,0.1 -0.2,0.2 -0.2,0.4 v 0.2 z m -1.5,0.5 0.5,0.1 -0.1,0.5 2.2,0.5 -0.2,0.5 -2.2,-0.5 -0.1,0.5 -0.5000003,-0.1 z"
   id="path54" />
<path
   class="st10"
   d="m 54.704635,46.076693 -1.5,-0.4 1.1,1.2 z m 1,0.3 -0.8,1.3 0.5,0.6 -0.7,1 -2.8,-3.6 0.8,-1.2 4.5,0.9 -0.7,1.2 z m -5.6,4.1 0.4,-0.4 c 0,0 0.1,-0.1 0.2,-0.3 0,-0.1 0.1,-0.2 0.1,-0.2 0,-0.1 -0.1,-0.2 -0.1,-0.2 -0.1,-0.1 -0.2,-0.1 -0.3,-0.1 -0.1,0 -0.3,0.1 -0.4,0.3 l -0.4,0.4 z m 0.9,2.7 -3,-2.9 1.5,-1.6 c 0.3,-0.3 0.5,-0.5 0.7,-0.6 0.2,-0.1 0.4,-0.1 0.6,-0.1 0.2,0 0.4,0.1 0.6,0.3 0.2,0.2 0.3,0.3 0.3,0.5 0.1,0.2 0.1,0.4 0,0.6 0,0.1 -0.1,0.3 -0.2,0.4 0.1,-0.1 0.3,-0.1 0.3,-0.1 0.1,0 0.2,0 0.3,0 0.1,0 0.3,0 0.3,0.1 l 1.3,0.4 -1,1.1 -1.4,-0.4 c -0.2,-0.1 -0.3,-0.1 -0.4,-0.1 -0.1,0 -0.2,0.1 -0.3,0.2 l -0.1,0.1 1.2,1.2 z m -6.8,-0.4 2.9,-1.9 0.5,0.8 -1.8,1.2 0.4,0.6 1.7,-1.1 0.5,0.7 -1.7,1.1 0.5,0.7 1.9,-1.2 0.5,0.8 -3,2 z m -2.6,4 h 1.2 c 0,0.3 0,0.6 -0.1,0.9 -0.1,0.3 -0.3,0.5 -0.5,0.6 -0.2,0.2 -0.5,0.3 -0.9,0.4 -0.4,0.1 -0.8,0.2 -1.1,0.1 -0.3,-0.1 -0.6,-0.2 -0.9,-0.5 -0.3,-0.3 -0.5,-0.7 -0.7,-1.2 -0.2,-0.7 -0.2,-1.2 0.1,-1.7 0.3,-0.5 0.7,-0.8 1.4,-1 0.5,-0.1 1,-0.2 1.3,0 0.4,0.1 0.7,0.4 0.9,0.8 l -1,0.6 c -0.1,-0.1 -0.1,-0.2 -0.2,-0.2 -0.1,-0.1 -0.2,-0.1 -0.3,-0.1 -0.1,0 -0.2,0 -0.4,0 -0.3,0.1 -0.5,0.3 -0.6,0.5 -0.1,0.2 -0.1,0.5 0,0.9 0.1,0.5 0.3,0.7 0.5,0.9 0.2,0.1 0.4,0.2 0.7,0.1 0.2,-0.1 0.4,-0.2 0.5,-0.4 0.1,-0.2 0.1,-0.5 0.1,-0.7 z m -6.1,-1.3 1.3,-0.2 0.5,4.2 -1.3,0.2 z m -5.4,-0.1 1.3,0.1 -0.1,1.5 1.4,0.1 0.1,-1.5 1.3,0.1 -0.3,4.2 h -1.2 l 0.1,-1.7 -1.4,-0.1 -0.1,1.7 -1.3,-0.1 z m -3.7,1 0.3,0.1 c 0.2,0.1 0.4,0.1 0.6,0 0.1,-0.1 0.2,-0.2 0.2,-0.3 0,-0.1 0,-0.2 0,-0.4 -0.1,-0.1 -0.2,-0.2 -0.5,-0.3 h -0.4 z m -0.8,-2.1 2.1,0.6 c 0.5,0.1 0.8,0.3 1,0.6 0.2,0.3 0.2,0.6 0.1,1 -0.1,0.4 -0.3,0.7 -0.6,0.9 -0.3,0.2 -0.7,0.2 -1.2,0.1 l -0.7,-0.2 -0.4,1.5 -1.3,-0.3 z m -3.5,1.3 0.3,-1.6 -1.1,1.2 z m -0.2,0.9 -1.3,-0.7 -0.5,0.5 -1.2,-0.6 3.3,-3.1 1.3,0.6 -0.5,4.5 -1.2,-0.6 z m -4.4,-5.2 0.4,0.4 c 0,0 0.1,0.1 0.3,0.2 0.1,0 0.2,0.1 0.2,0 0.1,0 0.2,-0.1 0.2,-0.1 0.1,-0.1 0.1,-0.2 0.1,-0.3 0,-0.1 -0.1,-0.2 -0.3,-0.4 l -0.4,-0.4 z m -2.7,1.1 2.8,-3.2 1.6,1.5 c 0.3,0.3 0.5,0.5 0.6,0.7 0.1,0.2 0.2,0.4 0.1,0.6 0,0.2 -0.1,0.4 -0.3,0.6 -0.2,0.2 -0.3,0.3 -0.5,0.4 -0.2,0.1 -0.4,0.1 -0.6,0 -0.1,0 -0.3,-0.1 -0.5,-0.2 0.1,0.1 0.1,0.3 0.2,0.3 0,0.1 0,0.2 0,0.3 0,0.1 0,0.3 0,0.3 l -0.3,1.3 -1.1,-1 0.3,-1.4 c 0,-0.2 0.1,-0.3 0,-0.4 0,-0.1 -0.1,-0.2 -0.2,-0.3 l -0.1,-0.1 -1.1,1.3 z m -1.4,-4 0.7,-0.6 1.3,1.6 -1.4,1.1 c -0.5,-0.1 -0.8,-0.3 -1.1,-0.5 -0.3,-0.2 -0.5,-0.4 -0.8,-0.7 -0.3,-0.4 -0.5,-0.8 -0.6,-1.1 -0.1,-0.4 0,-0.7 0.1,-1.1 0.2,-0.3 0.4,-0.7 0.7,-0.9 0.4,-0.3 0.7,-0.5 1.1,-0.5 0.4,-0.1 0.8,0 1.1,0.2 0.3,0.1 0.6,0.4 0.9,0.8 0.3,0.4 0.5,0.7 0.6,0.9 0.1,0.2 0.1,0.5 0.1,0.7 0,0.2 -0.1,0.5 -0.3,0.7 l -1,-0.8 c 0.1,-0.1 0.1,-0.3 0.1,-0.4 0,-0.2 -0.1,-0.3 -0.2,-0.5 -0.2,-0.2 -0.4,-0.3 -0.7,-0.3 -0.3,0 -0.6,0.1 -0.9,0.4 -0.4,0.3 -0.6,0.6 -0.6,0.8 0,0.3 0,0.5 0.2,0.7 0.1,0.1 0.2,0.2 0.3,0.3 0.3,0 0.4,0.1 0.6,0.1 l 0.3,-0.2 z"
   id="path56" />

</svg>
